<?xml version="1.0" encoding="utf-8"?><svg viewBox="0 0 113 117" xmlns="http://www.w3.org/2000/svg" xmlns:xlink="http://www.w3.org/1999/xlink"><style>:root>svg{display:none}:root>svg:target{display:block}</style><svg fill="none" viewBox="0 0 113 117" id="flover" xmlns="http://www.w3.org/2000/svg"><path fill-rule="evenodd" clip-rule="evenodd" d="M22.126 39.292c-1.329.395-1.403 1.187-3.9 3.692l-9.578 9.802c-1.021 1.358-1.713.866-1.715.86-.039-.093-.191.004-.28-.024.29-2.742 1.244-1.806 1.329-4.41-.807 1.807.37 1.47.432 1.52 2.116-2.632 1.147-1.38 3.11-3.138.156-.14.593-.602.733-.763.605-.7.753-.945 1.313-1.382.08-.063.334-.23.417-.297l3.132-2.949c1.175-.97 1.04-1.275 2.387-2.164-.38-1.038-.04-.735-1.097-1.136 1.839.243.224.424 2.333.1-1.097.295-.14.118-.684-.585-2.314-1.492-12.463-3.953-16.723-1.824l-.722.447c1.736 3.438 4.594 5.475 4.148 12.717C6.05 61.278-2.7 69.947.84 76.04c4.471 7.7 17.536 11.28 22.856 7.344l8.244-8.71c2.739-2.993 14.501-15.429 15.433-18.305-18.157-2.612-19.079.562-29.558.018.65-.682.22-.363 1.304-.911.538-.272.911-.392 1.507-.617 10.01-3.77 17.687-2.496 27.561-1.665-.29-3.106-2.22-3.433-4.871-4.801-4.05-2.09-18.2-9.211-21.191-9.102zm66.723 12.419l-1.392-1.145c2.104-.35 7.355-6.468 10.397-9.088l3.428-3.378c-.816-2.377-2.288-1.137-2.38-4.37l2.587 3.39c1.316.098.385.216.923-.466-.125-.431-2.172-3.01-2.627-3.864-.738-1.387-1.555-3.352-2.099-4.956-4.211-12.425-1.909-7.118-12.037-17.23-1.05-1.107-1.862-2.015-3.014-2.977-9.938.267-16.217 5.424-16.595 14.953-.255 6.419-3.21 26.658-2.752 28.712 3.196.956 16.797-7.078 20.28-9.288 1.562-.991 4.767-3.519 6.328-3.946-1.286 5.14-12.602 11.77-17.52 13.941-1.965.867-6.279 1.727-6.493 4.092 1.855 1.096 3.374.248 5.436-.216 2.048-.46 4.108-.917 6.121-1.381 2.063-.476 10.615-2.052 11.409-2.783zm-7.83 29.602c-.817.005-.316.386-1.01-.176-.274 1.395-.418.34.886 1.593 2.46 2.364 4.12 3.531 7.31 6.813.463.476 1.003 1.088 1.377 1.461.963.961.835 1.1 2.119.72.683-.194 1.486-1.765 3.375-3.294 3.466-2.806 9.157-6.166 12.937-8.6 3.743-2.41 5.157-3.512 4.061-9.257-.77-4.038-2.113-7.359-4.3-10.132-1.661-2.107-5.493-5.131-8.367-5.773-3.006-.671-35.314 6.506-36.243 7.068 6.133 9.879 17.35 15.434 22.465 20.431-2.158.067-2.916-.838-4.61-.854zM42.8 19.72c-2.87.539-8.067 8.185-10.846 8.6.569-1.798.807-1.219 2.42-3.046.394-.449.455-.537.842-.941.64-.67.964-.959 1.744-1.787L54.006 5.412c.061-.048.149-.106.211-.154l2.274-1.98c2.807-2.763 1.08-2.131 2.943-2.234L59.174 0h-1.218c-1.31 3.07-5.295 5.969-8.778 7.176-10.912 3.782-23.872-2.243-28.126 2.283-1.846 1.963-3.966 7.86-4.334 11.401-.466 4.471.882 9.194 3.3 12.342 1.663 2.165 17.697 8.753 21.371 10.385 2.868 1.274 8.218 4.042 11.632 4.486-.453-5.199-2.517-10.818-4.316-14.994a201.093 201.093 0 00-2.957-6.544c-1.059-2.237-2.463-4.73-2.949-6.816zm-5.106 83.405c.067.296 12.028 9.693 13.044 10.473 2.7 2.074 4.067 4.924 7.193 2.235 4.602-3.958 9.932-5.812 12.326-11.603 3.26-7.883-.595-11.602-4.188-17.998-1.006-1.79-3.008-5.88-4.213-7.254-.523.548-1.276.216-.21 1.672-.522-.3-.092-.063-.49-.367-.062-.047-.387-.18-.428-.33-.036-.128-.156-.128-.238-.185-.465 1.266-1.169 1.864-2.507 2.965-1.104.909-1.596 1.67-2.776 2.877l-16.942 16.577c.915.319 1.474.271 1.411 1.433-.298-.543-.476-.918-1.179-1.108-1.489-.404-.957-.075-.803.613zm-1.488-.944c1.1-.298.939-1.169 2.538-2.704l3.64-3.4.183-.176 17.709-17.465c.332-.439.208.114.516-1.103-.162-.892-5.628-10.94-7.221-12.484-1.288 1.059-3.102 4.724-3.752 6.208-3.69 8.41-4.756 15.51-7.194 21.384-1.47-3.343.876-13.383 1.944-16.387.867-2.441 1.684-4.357 2.806-6.762 1.019-2.183 2.681-4.705 3.165-6.663-3.701.056-3.754 1.276-5.675 3.45L28.77 84.556c-4.863 5.595-8.066 8.806-8.34 16.99 2.691-.032 4.62-1.31 8.455-1.164 3.476.132 5.473 1.706 7.319 1.798zm7.015-82.246c1.77 1.957 2.892 2.501 4.8 5.362 3.269 4.899 7.384 16.55 8.663 22.04l2.532-.036c1.19-1.944 2.211-19.397 2.4-22.967.276-5.194 2.12-19.518-1.397-22.218-1.048-.2-.313-.158-1.105.63L43.295 18.303l-.075 1.63zm46.49 74.868c-.411-2.758-1.275-2.226-3.193-4.628L76.194 79.967c-.067-.069-.47-.463-.483-.47l-1.522-.241c.06-.1.274-.411.304-.488.338-.87-.165-.936-.308-1.505l-10.626-9.996c-1.776-1.853-2.467-3.53-3.83-2.566-1.312 1.824.65 4.107 1.716 6.1 3.11 5.804 5.919 11.488 9.636 16.837 6.742 9.698 7.675 11.772 16.9 17.765.248-8.888 1.376-7.394 1.728-10.602zm1.016-43.735c2.017.438 18.518-3.149 20.466-9.44-.286-.26-.245-.246-.684-.514l-6.517-3.18-.913-.303c.247 1.591-.199.318 1.075 1.49-2.865-.15-3.628 1.485-4.935 3.037l-.92.866c-2.273 1.806-5.665 6.572-8.452 8.128.337-.532-.412-.405.88-.084zM42.8 19.72l.421.215.075-1.63 15.818-15.56c.792-.787.057-.829 1.105-.63-.458-1.364-.188-.706-.784-1.071-1.863.103-.136-.53-2.943 2.234l-2.273 1.98c-.063.048-.15.105-.212.154L36.96 22.545c-.78.828-1.105 1.117-1.744 1.786-.387.404-.448.493-.843.941-1.611 1.828-1.85 1.249-2.419 3.047 2.78-.415 7.976-8.061 10.847-8.6zm10.518 35.193c.742 1.836 1.45 1.574 2.959 3.328.85.99 2.291 2.551 3.415 3.032 2.732-.054 3.683-5.24 1.284-7.663-2.32-2.345-7.254-1.542-7.658 1.303zM36.205 102.18c.414.544.083.24.712.674.085.058.3.237.37.147.073-.097.27.081.406.123-.154-.688-.686-1.017.803-.613.703.19.881.564 1.18 1.108.062-1.162-.497-1.114-1.412-1.433l16.943-16.577c1.18-1.207 1.67-1.968 2.775-2.877 1.338-1.102 2.042-1.7 2.507-2.966.082.058.202.058.238.186.041.15.367.282.428.33.398.304-.032.067.49.367-1.066-1.456-.313-1.124.21-1.672-.374-1.025-.314-.997-1.063-1.645-.309 1.217-.184.664-.517 1.103L42.566 95.9l-.182.175-3.64 3.401c-1.6 1.535-1.44 2.406-2.539 2.704zm53.504-7.378c.999-.829 1.496-2.015 1.992-3.078-1.284.38-1.156.241-2.119-.72-.374-.373-.914-.985-1.377-1.46-3.19-3.282-4.85-4.45-7.31-6.814-1.303-1.253-1.16-.198-.886-1.593.694.562.194.18 1.01.176-.4-.423-.173-.254-.805-.663a36.403 36.403 0 00-.962-.497c-.723-.35-.93-.413-1.63-.82-1.269-.736-2.066-1.525-3.437-2.07.143.569.646.636.308 1.505-.03.077-.244.387-.304.488l1.522.24c.014.008.417.402.483.47l10.323 10.208c1.918 2.402 2.782 1.87 3.192 4.627zm-.86-43.091c.782-.092.511.03.962-.14.729-.277.515-.189.915-.503-1.292-.322-.543-.449-.88.083 2.787-1.556 6.18-6.322 8.451-8.128l.92-.866c1.308-1.552 2.071-3.186 4.936-3.038-1.274-1.17-.828.102-1.075-1.489l.913.302c-.73-1.153-.414-.83-1.579-1.278-.538.681.393.564-.923.465l-2.587-3.389c.092 3.233 1.564 1.993 2.38 4.37l-3.428 3.378c-3.042 2.62-8.293 8.738-10.396 9.088l1.391 1.145zM22.126 39.292c-.823-.742-.81-.597-2.068-.874.544.703-.413.88.684.584-2.109.325-.494.144-2.333-.1 1.058.402.718.099 1.098 1.137-1.347.889-1.213 1.193-2.387 2.164l-3.133 2.949c-.082.067-.337.234-.417.297-.56.438-.708.682-1.313 1.382-.14.161-.577.624-.733.763-1.963 1.759-.994.506-3.11 3.137-.062-.05-1.239.288-.432-1.52-.084 2.605-1.04 1.669-1.33 4.411.09.028.242-.069.28.024.003.006.695.498 1.716-.86l9.579-9.802c2.496-2.505 2.57-3.297 3.899-3.692zm30.371 17.503c1.19.276.075-.05.8.912.53.703 2.967 2.242 3.024 2.79l-.26.423c-.025.032-.136.108-.197.169 1.327.112 1.244.196 1.941.989.803-.06.636.036 1.183-.227.685-.328.288-.154.703-.579-1.123-.48-2.564-2.043-3.415-3.032-1.51-1.754-2.217-1.492-2.96-3.328-.302.344-.256.018-.533.717-.306.77-.084.15-.286 1.166zm5.308 5.283c-.697-.793-.614-.877-1.941-.99.061-.06.172-.136.196-.168l.261-.423c-.057-.548-2.493-2.087-3.023-2.79-.726-.961.39-.636-.8-.912-.11 3.236 2.098 5.37 5.307 5.283z" fill="#fff"/></svg><svg fill="none" viewBox="0 0 50 50" id="smile" xmlns="http://www.w3.org/2000/svg"><path d="M25 0C11.215 0 0 11.215 0 25s11.215 25 25 25 25-11.215 25-25S38.785 0 25 0zm-8.75 17.5a3.753 3.753 0 012.65 6.405 3.75 3.75 0 01-6.402-2.655 3.751 3.751 0 013.752-3.75zm19.352 18.11a14.955 14.955 0 01-7.584 4.085c-2.972.604-6.057.3-8.853-.873a14.992 14.992 0 01-6.605-5.44l4.145-2.792a9.985 9.985 0 001.22 1.475 9.969 9.969 0 003.183 2.15 9.883 9.883 0 001.872.58 10.27 10.27 0 004.04 0c.633-.13 1.262-.328 1.875-.583.585-.25 1.16-.56 1.698-.92.52-.355 1.017-.764 1.477-1.222a9.834 9.834 0 001.222-1.48l4.145 2.793c-.534.8-1.152 1.55-1.834 2.227zM27.5 25s1.25-5 6.25-5c4.998 0 6.25 5 6.25 5H27.5z" fill="#fff"/></svg></svg>