<svg width="113" height="117" viewBox="0 0 113 117" fill="none" xmlns="http://www.w3.org/2000/svg">
<path fill-rule="evenodd" clip-rule="evenodd" d="M22.1257 39.2922C20.7972 39.6869 20.7227 40.479 18.2268 42.984L8.6479 52.7864C7.62661 54.1444 6.93458 53.6516 6.93253 53.6463C6.89421 53.5531 6.74162 53.6504 6.65226 53.622C6.94247 50.88 7.89736 51.8156 7.9819 49.2114C7.17489 51.019 8.35185 50.6816 8.41436 50.7314C10.5301 48.1004 9.56067 49.3529 11.5238 47.5942C11.6796 47.4546 12.1169 46.9923 12.2565 46.8309C12.8617 46.1309 13.0101 45.8865 13.5699 45.4488C13.6496 45.3865 13.9043 45.2186 13.9868 45.152L17.1194 42.2033C18.2937 41.2321 18.1598 40.9277 19.5064 40.0392C19.1267 39.0009 19.4664 39.3045 18.4091 38.9029C20.248 39.1457 18.633 39.3269 20.7421 39.0021C19.6453 39.2981 20.602 39.1211 20.0578 38.4178C17.7438 36.9264 7.59505 34.4645 3.33455 36.5943L2.61331 37.0415C4.34866 40.4787 7.20666 42.5159 6.76078 49.7575C6.05153 61.2776 -2.69943 69.9468 0.840243 76.0415C5.31226 83.7417 18.377 87.3212 23.697 83.3855L31.9414 74.6746C34.6798 71.6821 46.4422 59.2464 47.3742 56.3697C29.2168 53.7581 28.2953 56.9323 17.8157 56.3881C18.4668 55.7058 18.0353 56.0254 19.1197 55.4767C19.6576 55.2046 20.031 55.0849 20.6271 54.8603C30.6369 51.0909 38.3141 52.3644 48.1883 53.1948C47.8986 50.0894 45.9677 49.7621 43.3169 48.3938C39.2674 46.3032 25.1166 39.183 22.1259 39.2922H22.1257ZM88.8491 51.711L87.4574 50.5658C89.5613 50.2157 94.8121 44.0983 97.8537 41.4785L101.282 38.0998C100.466 35.723 98.9935 36.9628 98.9022 33.7301L101.489 37.1195C102.805 37.218 101.874 37.3355 102.412 36.654C102.287 36.2227 100.24 33.6448 99.7851 32.79C99.0468 31.4032 98.2302 29.4381 97.6863 27.8335C93.4749 15.4095 95.7772 20.7162 85.6495 10.6047C84.5991 9.49731 83.7868 8.58946 82.6355 7.6274C72.6975 7.89405 66.4176 13.0514 66.0398 22.5797C65.7853 28.9989 62.8298 49.2376 63.2882 51.2919C66.4844 52.2476 80.0849 44.2139 83.5676 42.0042C85.1296 41.013 88.3348 38.4852 89.8958 38.0577C88.6102 43.1986 77.2939 49.8287 72.3761 51.9992C70.4111 52.8665 66.0972 53.7257 65.883 56.0914C67.7382 57.1871 69.2573 56.3394 71.3193 55.8752C73.3667 55.4142 75.4275 54.9584 77.4402 54.4939C79.5032 54.0177 88.0549 52.4419 88.849 51.7109L88.8491 51.711ZM81.0197 81.3134C80.2025 81.3176 80.703 81.6994 80.0084 81.1368C79.7353 82.5317 79.5915 81.477 80.8947 82.7296C83.355 85.0945 85.0142 86.2615 88.2051 89.5432C88.6682 90.0194 89.2082 90.6314 89.5819 91.0044C90.5448 91.9654 90.4172 92.1042 91.7009 91.7237C92.3844 91.5299 93.1874 89.9594 95.0762 88.4299C98.5417 85.6242 104.233 82.2638 108.013 79.8295C111.756 77.4194 113.17 76.3183 112.074 70.5731C111.304 66.535 109.961 63.2143 107.774 60.4405C106.113 58.3338 102.281 55.3097 99.4069 54.668C96.4006 53.9967 64.0934 61.174 63.1642 61.7359C69.2972 71.6146 80.5146 77.1697 85.6288 82.1674C83.4709 82.2336 82.7135 81.3288 81.0197 81.3134V81.3134ZM42.7993 19.7194C39.9283 20.258 34.7324 27.9039 31.9528 28.3196C32.5219 26.5208 32.7603 27.1004 34.3721 25.2726C34.7673 24.8244 34.8284 24.7357 35.2145 24.3317C35.8541 23.6624 36.1791 23.3735 36.9593 22.5455L54.006 5.41133C54.0673 5.36255 54.1547 5.30516 54.2173 5.2572L56.4912 3.27682C59.298 0.513515 57.5704 1.14601 59.4341 1.04322L59.1748 0H57.9561C56.646 3.06982 52.6609 5.96901 49.1781 7.17609C38.2656 10.9581 25.3059 4.93337 21.0521 9.45878C19.2063 11.4224 17.0862 17.3194 16.7175 20.8601C16.2519 25.3313 17.5998 30.0543 20.0176 33.2015C21.6813 35.367 37.7151 41.9547 41.3891 43.5871C44.2569 44.8612 49.6074 47.6288 53.0213 48.073C52.5683 42.874 50.5045 37.2555 48.7054 33.0791C47.7241 30.8018 46.7622 28.6773 45.7482 26.5352C44.6892 24.2982 43.2854 21.8058 42.7992 19.7194H42.7993ZM37.693 103.124C37.7595 103.42 49.7206 112.817 50.7367 113.597C53.4369 115.671 54.8042 118.521 57.9301 115.832C62.5319 111.874 67.8621 110.02 70.2561 104.229C73.5151 96.3463 69.6606 92.6275 66.0677 86.2307C65.0621 84.4403 63.0595 80.3517 61.8547 78.9769C61.3318 79.5249 60.579 79.1931 61.6448 80.6493C61.1233 80.3493 61.5531 80.5864 61.1553 80.282C61.0934 80.2346 60.7682 80.1015 60.7266 79.952C60.691 79.8241 60.5714 79.824 60.4888 79.7666C60.0243 81.0325 59.32 81.6305 57.982 82.732C56.8777 83.641 56.3862 84.402 55.2065 85.6091L38.2639 102.186C39.1789 102.505 39.7377 102.457 39.675 103.619C39.3773 103.076 39.1991 102.701 38.4964 102.511C37.0071 102.107 37.5389 102.436 37.6931 103.124L37.693 103.124ZM36.205 102.18C37.3045 101.882 37.1436 101.011 38.743 99.4765L42.3837 96.0755C42.4376 96.0244 42.5126 95.9521 42.5661 95.9001L60.2745 78.4353C60.6073 77.9964 60.4831 78.5492 60.7913 77.3321C60.629 76.44 55.1628 66.3923 53.5698 64.8483C52.2818 65.9066 50.4685 69.5722 49.8176 71.0557C46.1289 79.4653 45.0622 86.5668 42.6237 92.44C41.1542 89.097 43.5 79.0565 44.5675 76.0529C45.435 73.612 46.2516 71.6964 47.3741 69.2909C48.3928 67.1077 50.0555 64.5861 50.5393 62.6284C46.8377 62.6842 46.7846 63.9042 44.8639 66.0778L28.7707 84.5565C23.9081 90.151 20.7046 93.3622 20.4311 101.546C23.122 101.514 25.0515 100.236 28.8857 100.382C32.3616 100.514 34.359 102.088 36.2049 102.18H36.205ZM43.2204 19.9339C44.9902 21.8915 46.1121 22.4352 48.0203 25.2956C51.289 30.1947 55.4039 41.8458 56.6829 47.3352L59.2147 47.3004C60.4046 45.3562 61.4262 27.9025 61.6155 24.3325C61.8908 19.1389 63.7345 4.81511 60.2183 2.11483C59.1702 1.9152 59.9051 1.95722 59.1129 2.74414L43.2949 18.3038L43.2203 19.934L43.2204 19.9339ZM89.7092 94.8015C89.2989 92.0442 88.4347 92.5764 86.517 90.1736L76.194 79.9666C76.1275 79.8984 75.7247 79.5041 75.7108 79.4965L74.1886 79.2558C74.249 79.1551 74.463 78.8446 74.4927 78.768C74.8311 77.8989 74.3275 77.8319 74.1848 77.2625L63.5594 67.2668C61.7834 65.4137 61.0915 63.7369 59.7298 64.7011C58.4174 66.5247 60.3783 68.8081 61.4454 70.8004C64.5543 76.6053 67.3638 82.2893 71.0813 87.6376C77.8225 97.336 78.756 99.4102 87.9803 105.403C88.2285 96.5146 89.3574 98.0091 89.7091 94.8014L89.7092 94.8015ZM90.7263 51.0675C92.7429 51.5049 109.244 47.918 111.192 41.6276C110.906 41.3677 110.947 41.3809 110.508 41.1132L103.991 37.9324L103.078 37.6301C103.325 39.2214 102.879 37.9483 104.153 39.1191C101.288 38.9705 100.525 40.6053 99.2178 42.1567L98.2973 43.0228C96.0253 44.8291 92.6332 49.595 89.8456 51.1507C90.1835 50.6192 89.4339 50.7461 90.7264 51.0675H90.7263ZM42.7994 19.7194L43.2204 19.9339L43.295 18.3037L59.113 2.74404C59.9051 1.95712 59.1703 1.9151 60.2184 2.11473C59.7601 0.749931 60.0303 1.40835 59.4343 1.04302C57.5706 1.1458 59.2982 0.51331 56.4914 3.27662L54.2175 5.257C54.1549 5.30485 54.0675 5.36234 54.0062 5.41112L36.9595 22.5453C36.1793 23.3733 35.8543 23.6622 35.2147 24.3314C34.8285 24.7355 34.7675 24.8243 34.3723 25.2724C32.7605 27.1002 32.5221 26.5206 31.953 28.3194C34.7326 27.9037 39.9286 20.2578 42.7995 19.7192L42.7994 19.7194ZM53.3167 54.9121C54.0588 56.7475 54.7663 56.4863 56.2755 58.24C57.1266 59.2293 58.5675 60.7911 59.6911 61.2721C62.4227 61.2175 63.3736 56.0325 60.9753 53.6092C58.6542 51.264 53.7207 52.0674 53.3168 54.9121H53.3167ZM36.2051 102.18C36.6187 102.724 36.2882 102.42 36.9174 102.854C37.0024 102.912 37.2175 103.091 37.2863 103.001C37.3599 102.904 37.5579 103.082 37.6932 103.124C37.5389 102.436 37.0072 102.107 38.4965 102.511C39.1992 102.701 39.3774 103.075 39.6751 103.619C39.7378 102.457 39.179 102.505 38.264 102.186L55.2066 85.6089C56.3863 84.4018 56.8778 83.6408 57.9821 82.7318C59.32 81.6303 60.0244 81.0323 60.4889 79.7664C60.5714 79.8238 60.691 79.8239 60.7267 79.9517C60.7683 80.1013 61.0935 80.2345 61.1554 80.2818C61.5532 80.5862 61.1234 80.3491 61.6449 80.6491C60.5792 79.1929 61.332 79.5248 61.8548 78.9767C61.4805 77.9521 61.5405 77.9797 60.7916 77.332C60.4833 78.5492 60.6075 77.9963 60.2748 78.4352L42.5663 95.9C42.5128 95.9519 42.4378 96.0243 42.3839 96.0754L38.7432 99.4764C37.1438 101.011 37.3047 101.882 36.2052 102.18L36.2051 102.18ZM89.7093 94.8016C90.7076 93.9731 91.2046 92.7872 91.701 91.7237C90.4173 92.1042 90.545 91.9654 89.582 91.0044C89.2083 90.6314 88.6683 90.0194 88.2052 89.5432C85.0143 86.2615 83.3551 85.0945 80.8948 82.7296C79.5916 81.477 79.7354 82.5317 80.0085 81.1368C80.7031 81.6994 80.2026 81.3176 81.0198 81.3134C80.6193 80.8901 80.8459 81.059 80.2141 80.6503C80.1424 80.604 79.3351 80.1935 79.2516 80.1532C78.5293 79.8037 78.3229 79.7404 77.622 79.3336C76.3532 78.5973 75.556 77.8085 74.185 77.2625C74.3276 77.8319 74.8312 77.8989 74.4928 78.768C74.463 78.8446 74.2491 79.1551 74.1887 79.2558L75.7109 79.4965C75.7249 79.5041 76.1276 79.8984 76.1941 79.9666L86.5171 90.1736C88.4348 92.5764 89.299 92.0442 89.7093 94.8015V94.8016ZM88.8493 51.711C89.6315 51.6193 89.36 51.7419 89.8112 51.5705C90.5397 51.2937 90.326 51.3823 90.7264 51.0676C89.4339 50.7462 90.1835 50.6192 89.8456 51.1508C92.6332 49.5951 96.0254 44.8293 98.2973 43.0229L99.2178 42.1568C100.525 40.6053 101.288 38.9705 104.153 39.1192C102.879 37.9484 103.325 39.2215 103.078 37.6302L103.991 37.9325C103.261 36.7786 103.577 37.1022 102.412 36.654C101.874 37.3355 102.805 37.2181 101.489 37.1195L98.9024 33.7301C98.9937 36.9628 100.466 35.723 101.282 38.0998L97.8539 41.4785C94.8122 44.0983 89.5615 50.2156 87.4576 50.5658L88.8493 51.711V51.711ZM22.126 39.2922C21.3034 38.5501 21.3162 38.6952 20.058 38.4178C20.6021 39.1211 19.6455 39.2981 20.7423 39.0021C18.6332 39.3268 20.2482 39.1457 18.4093 38.9029C19.4665 39.3045 19.1268 39.0009 19.5066 40.0392C18.1601 40.9277 18.2939 41.2321 17.1196 42.2033L13.987 45.152C13.9045 45.2186 13.6498 45.3865 13.5701 45.4488C13.0102 45.8865 12.8618 46.1309 12.2568 46.8309C12.1171 46.9923 11.6798 47.4546 11.524 47.5942C9.56088 49.353 10.5303 48.1005 8.41456 50.7314C8.35195 50.6815 7.1751 51.0189 7.98211 49.2114C7.89756 51.8155 6.94268 50.88 6.65246 53.622C6.74182 53.6504 6.89441 53.5531 6.93274 53.6463C6.93479 53.6516 7.62682 54.1444 8.64811 52.7864L18.227 42.984C20.7229 40.479 20.7974 39.6868 22.126 39.2922V39.2922ZM52.4973 56.7952C53.6875 57.0711 52.5725 56.7455 53.2976 57.7072C53.8276 58.4103 56.2639 59.9487 56.3214 60.4972L56.0604 60.9202C56.0361 60.9517 55.9252 61.028 55.8639 61.0888C57.1913 61.2006 57.1083 61.2848 57.8052 62.0776C58.6077 62.0182 58.4407 62.114 58.9883 61.8513C59.6726 61.523 59.2755 61.6972 59.6913 61.2722C58.5677 60.7912 57.1269 59.2294 56.2757 58.2401C54.7666 56.4864 54.059 56.7476 53.3169 54.9122C53.0139 55.2563 53.0604 54.9304 52.7832 55.629C52.4774 56.3998 52.6992 55.7794 52.4974 56.7953L52.4973 56.7952ZM57.805 62.0776C57.1082 61.2848 57.1912 61.2006 55.8638 61.0888C55.9251 61.028 56.036 60.9517 56.0603 60.9202L56.3213 60.4972C56.2638 59.9487 53.8275 58.4103 53.2975 57.7072C52.5724 56.7456 53.6875 57.0712 52.4972 56.7952C52.3882 60.0307 54.5955 62.1653 57.8049 62.0776H57.805Z" fill="white"/>
</svg>
