<svg width="50" height="50" viewBox="0 0 50 50" fill="none" xmlns="http://www.w3.org/2000/svg">
<path d="M25 0C11.215 0 0 11.215 0 25C0 38.785 11.215 50 25 50C38.785 50 50 38.785 50 25C50 11.215 38.785 0 25 0ZM16.25 17.5C16.7426 17.5002 17.2304 17.5974 17.6854 17.786C18.1405 17.9747 18.5539 18.2511 18.9022 18.5996C19.2504 18.948 19.5266 19.3617 19.7149 19.8169C19.9033 20.272 20.0002 20.7599 20 21.2525C19.9998 21.7451 19.9026 22.2329 19.714 22.6879C19.5253 23.143 19.2489 23.5564 18.9004 23.9047C18.552 24.2529 18.1383 24.5291 17.6831 24.7174C17.228 24.9058 16.7401 25.0027 16.2475 25.0025C15.2526 25.0022 14.2986 24.6066 13.5953 23.9029C12.8921 23.1992 12.4972 22.2449 12.4975 21.25C12.4978 20.2551 12.8934 19.3011 13.5971 18.5978C14.3008 17.8946 15.2551 17.4997 16.25 17.5ZM35.6025 35.61C33.5296 37.6862 30.8918 39.1068 28.0175 39.695C25.046 40.2993 21.9614 39.9953 19.165 38.8225C16.4816 37.6893 14.1865 35.799 12.56 33.3825L16.705 30.59C17.0625 31.1175 17.4725 31.615 17.925 32.065C18.8365 32.9812 19.9173 33.7114 21.1075 34.215C21.715 34.47 22.345 34.6675 22.98 34.795C24.3134 35.0625 25.6866 35.0625 27.02 34.795C27.6525 34.665 28.2825 34.4675 28.895 34.2125C29.48 33.9625 30.055 33.6525 30.5925 33.2925C31.1125 32.9375 31.61 32.5275 32.07 32.07C32.5275 31.615 32.9375 31.1175 33.2925 30.59L37.4375 33.3825C36.9025 34.1825 36.285 34.9325 35.6025 35.61ZM27.5 25C27.5 25 28.75 20 33.75 20C38.7475 20 40 25 40 25H27.5Z" fill="white"/>
</svg>
